<svg width="18" height="18" xmlns="http://www.w3.org/2000/svg">
  <path d="M17.94 8.7c0-.04 0-.1-.03-.13l-.02-.1c0-.02-.03-.05-.03-.08 0-.04-.03-.07-.03-.1s-.03-.06-.03-.1c0-.02-.04-.05-.04-.08-.03-.03-.03-.06-.06-.1-.03-.02-.03-.05-.06-.08s-.03-.06-.06-.1c-.03-.02-.06-.05-.06-.08-.03-.03-.03-.06-.06-.06-.03-.06-.1-.12-.15-.15L10.5.6c-.82-.8-2.18-.8-3 0-.8.82-.8 2.17 0 2.98L9 5.08l1.8 1.8H2.1C.93 6.9 0 7.83 0 9c0 1.18.93 2.1 2.1 2.1h8.68L9 12.9 7.5 14.4c-.8.8-.8 2.16 0 2.97.43.42.97.63 1.48.63.52 0 1.1-.2 1.48-.63l6.9-6.88.16-.16c.03-.03.03-.06.06-.06.03-.03.06-.06.06-.1.03-.02.03-.05.06-.08s.03-.06.06-.1c.03-.02.03-.05.06-.08 0-.03.03-.06.03-.1 0-.02.03-.05.03-.08s.03-.06.03-.1c0-.02.04-.05.04-.08s.03-.06.03-.1c0-.02 0-.08.03-.1v-.52c-.03-.1-.06-.12-.06-.15" fill="#fff" fill-rule="evenodd"/>
</svg>
