<svg xmlns="http://www.w3.org/2000/svg" xmlns:xlink="http://www.w3.org/1999/xlink" width="125" height="126" viewBox="0 0 125 126">
    <defs>
        <path id="a" d="M0 0h138v138H0z"/>
    </defs>
    <g fill="none" fill-rule="evenodd" transform="translate(-6 -6)">
        <mask id="b" fill="#fff">
            <use xlink:href="#a"/>
        </mask>
        <path fill="#FEE301" d="M31.634 18.861H52.46v-4.867H31.634v4.867zM15.58 6.47c-5.003 0-9.111 4.115-9.111 9.126V57.14a15.273 15.273 0 0 1 7.81-2.985V24.997h55.536v29.104h7.81V15.595c0-5.011-4.107-9.126-9.11-9.126H15.58zM21.32 95.953c0 2.516-2.024 4.556-4.52 4.556-2.493 0-4.52-2.04-4.52-4.556s2.027-4.555 4.52-4.555c2.496 0 4.52 2.04 4.52 4.555zm5.813 27.767h84.966V68.185H27.133v55.535zm91.044-17.354H123V85.54h-4.823v20.826zm12.276-36.88c0-5.003-4.076-9.111-9.038-9.111H15.509c-4.964 0-9.04 4.107-9.04 9.11v52.935c0 5.003 4.076 9.111 9.04 9.111h105.906c4.962 0 9.038-4.108 9.038-9.11V69.485zM108.134 40.434l-.003-1.49c.032-6.088-2.365-11.896-6.665-16.126-4.288-4.219-10.053-6.565-16.294-6.646v6.286c4.337.111 8.426 1.8 11.546 4.87 3.243 3.19 5.017 7.342 4.895 11.584l-.018 1.49-8.436-.043 11.58 11.391 11.698-11.274-8.303-.042z" mask="url(#b)"/>
    </g>
</svg>
